<svg width="48" height="48" viewBox="0 0 48 48" fill="none" xmlns="http://www.w3.org/2000/svg">
<circle cx="24" cy="24" r="24" fill="#BDECF3"/>
<path fill-rule="evenodd" clip-rule="evenodd" d="M35.0001 17.9596C35.0001 15.9656 33.3836 14.3491 31.3896 14.3491H16.6108C14.681 14.3491 13.1048 15.8631 13.0053 17.7681C13.1049 15.8632 14.6811 14.3493 16.6108 14.3493H31.3896C33.3836 14.3493 35.0001 15.9658 35.0001 17.9598V20.3298H28.8055V24.6006H35.0001V26.5229H28.8055V30.3687H35.0001V32.291H28.8055V36.3489H31.3896C33.3836 36.3489 35.0001 34.7324 35.0001 32.7384V17.9596ZM26.8832 20.3298H21.2236V24.6006H26.8832V20.3298ZM19.3013 20.3298H13.0003V24.6006H19.3013V20.3298ZM26.8832 26.5229V30.3687H21.2236V26.5229H26.8832ZM19.3013 26.5229V30.3687H13.0003L13.0003 26.5229H19.3013ZM19.3013 32.291H13.0003L13.0003 32.7384C13.0003 34.7324 14.6168 36.3489 16.6108 36.3489H19.3013V32.291ZM26.8832 32.291H21.2236V36.3489H26.8832V32.291Z" fill="#026AA7"/>
<path opacity="0.5" fill-rule="evenodd" clip-rule="evenodd" d="M13.0001 20.3302H34.9998V17.9601C34.9998 15.9661 33.3834 14.3497 31.3894 14.3497H16.6105C14.6165 14.3497 13.0001 15.9661 13.0001 17.9601V20.3302Z" fill="#026AA7"/>
<path d="M28.6989 15.9513C28.6989 16.4821 28.2685 16.9124 27.7377 16.9124C27.222 16.9124 26.8012 16.5063 26.7776 15.9965L26.7765 15.9513V12.961C26.7765 12.4302 27.2069 11.9998 27.7377 11.9998C28.2534 11.9998 28.6742 12.4059 28.6978 12.9158L28.6989 12.961V15.9513Z" fill="#026AA7"/>
<path d="M21.2232 15.9513C21.2232 16.4821 20.7929 16.9124 20.2621 16.9124C19.7464 16.9124 19.3256 16.5063 19.3019 15.9965L19.3009 15.9513V12.961C19.3009 12.4302 19.7312 11.9998 20.2621 11.9998C20.7777 11.9998 21.1985 12.4059 21.2222 12.9158L21.2232 12.961V15.9513Z" fill="#026AA7"/>
</svg>
