<svg width="48" height="48" viewBox="0 0 48 48" fill="none" xmlns="http://www.w3.org/2000/svg">
<circle cx="24" cy="24" r="24" fill="#D3F6E4"/>
<mask id="mask0" mask-type="alpha" maskUnits="userSpaceOnUse" x="11" y="13" width="26" height="19">
<path fill-rule="evenodd" clip-rule="evenodd" d="M11 13H37V31.0175H11V13Z" fill="white"/>
</mask>
<g mask="url(#mask0)">
<path opacity="0.5" fill-rule="evenodd" clip-rule="evenodd" d="M24 13C16.8273 13 11 18.8273 11 26C11 33.1727 16.8273 39 24 39C31.1727 39 37 33.1727 37 26C37 18.8273 31.1727 13 24 13ZM29.2048 19.3459C29.6057 18.9452 30.2555 18.9453 30.6563 19.3462C31.0445 19.7345 31.0565 20.3565 30.6924 20.7593L30.656 20.7976L26.5209 24.9313C26.6602 25.2596 26.7373 25.6207 26.7373 25.9998C26.7373 27.5113 25.512 28.7366 24.0005 28.7366C22.489 28.7366 21.2636 27.5113 21.2636 25.9998C21.2636 24.4883 22.489 23.2629 24.0005 23.2629C24.3799 23.2629 24.7412 23.3401 25.0697 23.4797L29.2048 19.3459Z" fill="#5AAC44"/>
<path fill-rule="evenodd" clip-rule="evenodd" d="M24 13C16.8273 13 11 18.8273 11 26C11 33.1727 16.8273 39 24 39C31.1727 39 37 33.1727 37 26C37 18.8273 31.1727 13 24 13ZM14.6007 24.975C14.0563 25.0002 13.6227 25.4496 13.6227 26.0002C13.6227 26.567 14.0822 27.0265 14.649 27.0265H16.7016L16.7499 27.0254C17.2943 27.0002 17.7279 26.5508 17.7279 26.0002C17.7279 25.4334 17.2684 24.9739 16.7016 24.9739H14.649L14.6007 24.975ZM30.2723 26.0005C30.2723 25.4499 30.7059 25.0005 31.2503 24.9753L31.2986 24.9742H33.3512C33.9181 24.9742 34.3776 25.4337 34.3776 26.0005C34.3776 26.5511 33.9439 27.0005 33.3996 27.0257L33.3512 27.0268H31.2986C30.7318 27.0268 30.2723 26.5673 30.2723 26.0005ZM25.0257 16.6011C25.0005 16.0568 24.5511 15.6231 24.0005 15.6231C23.4337 15.6231 22.9742 16.0826 22.9742 16.6495V18.7021L22.9753 18.7504C23.0005 19.2948 23.4499 19.7284 24.0005 19.7284C24.5673 19.7284 25.0268 19.2689 25.0268 18.7021V16.6495L25.0257 16.6011ZM19.5653 20.1141C19.9661 20.5149 19.9661 21.1647 19.5653 21.5655C19.176 21.9548 18.5516 21.966 18.1488 21.5989L18.1139 21.5655L16.6625 20.1141C16.2617 19.7133 16.2617 19.0634 16.6625 18.6626C17.0518 18.2733 17.6762 18.2622 18.0789 18.6293L18.1139 18.6626L19.5653 20.1141ZM29.2048 19.3459C29.6057 18.9452 30.2555 18.9453 30.6563 19.3462C31.0445 19.7345 31.0565 20.3565 30.6924 20.7593L30.656 20.7976L26.5209 24.9313C26.6602 25.2596 26.7373 25.6207 26.7373 25.9998C26.7373 27.5113 25.512 28.7366 24.0005 28.7366C22.489 28.7366 21.2636 27.5113 21.2636 25.9998C21.2636 24.4883 22.489 23.2629 24.0005 23.2629C24.3799 23.2629 24.7412 23.3401 25.0697 23.4797L29.2048 19.3459Z" fill="#5AAC44"/>
</g>
</svg>
