<svg width="48" height="48" viewBox="0 0 48 48" fill="none" xmlns="http://www.w3.org/2000/svg">
<circle cx="24" cy="24" r="24" fill="#FDF5EC"/>
<path fill-rule="evenodd" clip-rule="evenodd" d="M32.4853 13.5147C27.799 8.82843 20.201 8.82843 15.5147 13.5147C10.8284 18.201 10.8284 25.799 15.5147 30.4853L21.922 36.8925C23.0696 38.0402 24.9304 38.0402 26.078 36.8925L32.4853 30.4853C37.1716 25.799 37.1716 18.201 32.4853 13.5147ZM24 26.6531C26.5698 26.6531 28.653 24.5698 28.653 22C28.653 19.4302 26.5698 17.3469 24 17.3469C21.4302 17.3469 19.3469 19.4302 19.3469 22C19.3469 24.5698 21.4302 26.6531 24 26.6531Z" fill="#E99E40"/>
</svg>
