<svg width="48" height="48" viewBox="0 0 48 48" fill="none" xmlns="http://www.w3.org/2000/svg">
<circle cx="24" cy="24" r="24" fill="#FCDEF0"/>
<path opacity="0.5" fill-rule="evenodd" clip-rule="evenodd" d="M15.0289 30.971H32.9707V19.3205H15.0289V30.971ZM27.3784 21.301C27.9575 21.301 28.427 21.7705 28.427 22.3496C28.427 22.9121 27.984 23.3712 27.4278 23.397L27.3784 23.3981H18.2911C17.712 23.3981 17.2425 22.9287 17.2425 22.3496C17.2425 21.787 17.6855 21.328 18.2417 21.3022L18.2911 21.301H27.3784ZM23.7668 27.0098C23.7668 26.4307 23.2973 25.9612 22.7183 25.9612H18.2911L18.2417 25.9624C17.6855 25.9882 17.2425 26.4472 17.2425 27.0098C17.2425 27.5889 17.712 28.0583 18.2911 28.0583H22.7183L22.7676 28.0572C23.3238 28.0314 23.7668 27.5723 23.7668 27.0098Z" fill="#E76EB1"/>
<circle opacity="0.5" r="1.39806" transform="matrix(1 0 0 -1 31.5728 13.7282)" fill="#E76EB1"/>
<path fill-rule="evenodd" clip-rule="evenodd" d="M36 31.2039C36 32.7481 34.7481 34 33.2039 34H14.7961C13.2519 34 12 32.7481 12 31.2039V12.7961C12 11.2519 13.2519 10 14.7961 10H33.2039C34.7481 10 36 11.2519 36 12.7961V31.2039ZM21.4369 13.7282C21.4369 13.1491 20.9674 12.6796 20.3883 12.6796H15.9612L15.9118 12.6808C15.3556 12.7065 14.9126 13.1656 14.9126 13.7282C14.9126 14.3073 15.3821 14.7767 15.9612 14.7767H20.3883L20.4377 14.7756C20.9939 14.7498 21.4369 14.2907 21.4369 13.7282ZM15.0291 30.9709H32.9709V19.3204H15.0291V30.9709ZM31.5728 12.3301C32.3449 12.3301 32.9709 12.956 32.9709 13.7282C32.9709 14.5003 32.3449 15.1262 31.5728 15.1262C30.8007 15.1262 30.1748 14.5003 30.1748 13.7282C30.1748 12.956 30.8007 12.3301 31.5728 12.3301Z" fill="#E76EB1"/>
</svg>
