<?xml version="1.0" encoding="iso-8859-1"?>
<!-- Generator: Adobe Illustrator 19.0.0, SVG Export Plug-In . SVG Version: 6.00 Build 0)  -->
<svg version="1.1" id="Layer_1" xmlns="http://www.w3.org/2000/svg" xmlns:xlink="http://www.w3.org/1999/xlink" x="0px" y="0px"
	 viewBox="0 0 504.08 504.08" style="enable-background:new 0 0 504.08 504.08;" xml:space="preserve">
<g>
	<g>
		<rect x="151.44" y="87.8" width="188.032" height="16"/>
	</g>
</g>
<g>
	<g>
		<rect x="151.44" y="133.768" width="352.64" height="16"/>
	</g>
</g>
<g>
	<g>
		<rect x="151.44" y="222.12" width="188.032" height="16"/>
	</g>
</g>
<g>
	<g>
		<rect x="151.44" y="268.04" width="352.64" height="16"/>
	</g>
</g>
<g>
	<g>
		<rect x="151.44" y="356.392" width="188.032" height="16"/>
	</g>
</g>
<g>
	<g>
		<rect x="151.44" y="402.376" width="352.64" height="16"/>
	</g>
</g>
<g>
	<g>
		<path d="M35.248,215.992C15.792,215.992,0,232.136,0,252.04s15.792,36.048,35.248,36.048s35.264-16.144,35.264-36.048
			S54.72,215.992,35.248,215.992z M35.248,272.088C24.64,272.088,16,263.096,16,252.04c0-11.056,8.64-20.048,19.248-20.048
			c10.624,0,19.248,8.992,19.248,20.048C54.512,263.096,45.872,272.088,35.248,272.088z"/>
	</g>
</g>
<g>
	<g>
		<path d="M35.248,81.688C15.792,81.688,0,97.832,0,117.736s15.792,36.048,35.248,36.048s35.264-16.144,35.264-36.048
			S54.72,81.688,35.248,81.688z M35.248,137.784C24.64,137.784,16,128.792,16,117.736c0-11.056,8.64-20.048,19.248-20.048
			c10.624,0,19.248,8.992,19.248,20.048C54.496,128.792,45.872,137.784,35.248,137.784z"/>
	</g>
</g>
<g>
	<g>
		<path d="M35.248,350.296C15.776,350.296,0,366.44,0,386.344s15.792,36.048,35.248,36.048s35.248-16.144,35.248-36.048
			C70.512,366.44,54.72,350.296,35.248,350.296z M35.248,406.392C24.624,406.392,16,397.4,16,386.344
			c0-11.056,8.64-20.048,19.248-20.048c10.624,0,19.248,8.992,19.248,20.048C54.496,397.4,45.872,406.392,35.248,406.392z"/>
	</g>
</g>
<g>
</g>
<g>
</g>
<g>
</g>
<g>
</g>
<g>
</g>
<g>
</g>
<g>
</g>
<g>
</g>
<g>
</g>
<g>
</g>
<g>
</g>
<g>
</g>
<g>
</g>
<g>
</g>
<g>
</g>
</svg>
