<?xml version="1.0" encoding="utf-8"?>
<!-- Generator: Adobe Illustrator 19.0.0, SVG Export Plug-In . SVG Version: 6.00 Build 0)  -->
<svg version="1.1" id="Layer_1" xmlns="http://www.w3.org/2000/svg" xmlns:xlink="http://www.w3.org/1999/xlink" x="0px" y="0px"
	 viewBox="0 0 70 70" style="enable-background:new 0 0 70 70;" xml:space="preserve">
<style type="text/css">
	.st0{fill:#292929;}
</style>
<g>
	<path class="st0" d="M43.4,20.3c-5.2,0-10.4,0-15.6,0c-2,0-3.9-0.4-4-2.7c-0.1-2.3,1.7-2.8,3.8-2.8c10.8,0,21.6,0,32.3,0
		c2.1,0,3.9,0.5,3.8,2.8c-0.1,2.3-2,2.7-4,2.7C54.3,20.2,48.9,20.3,43.4,20.3z"/>
	<path class="st0" d="M43.6,43.6c-5.2,0-10.4,0-15.6,0c-2.1,0-4.2-0.3-4.2-2.8c0-2.3,2-2.7,4-2.7c10.6,0,21.3,0,31.9,0
		c2,0,3.9,0.4,4,2.7c0,2.6-2,2.9-4.1,2.8C54.3,43.5,49,43.6,43.6,43.6z"/>
	<path class="st0" d="M39.1,31.9c-3.7,0-7.5,0-11.2,0c-2,0-3.9-0.4-4-2.7c-0.1-2.3,1.8-2.8,3.8-2.8c7.9,0,15.7,0,23.6,0
		c2,0,3.9,0.5,3.8,2.8c-0.1,2.3-2,2.7-4,2.7C47,31.9,43.1,31.9,39.1,31.9z"/>
	<path class="st0" d="M39.8,49.7c3.8,0,7.5,0,11.3,0c2,0,3.9,0.3,4,2.7c0.1,2.3-1.7,2.8-3.8,2.8c-7.9,0-15.7,0-23.6,0
		c-2.1,0-3.9-0.5-3.8-2.8c0.1-2.3,2-2.7,4-2.7C31.8,49.8,35.8,49.7,39.8,49.7z"/>
	<path class="st0" d="M17.3,20.6c-0.1,2.9-2.8,5.6-5.7,5.5c-2.9-0.1-5.5-2.8-5.4-5.8c0.1-3,2.8-5.6,5.6-5.5
		C14.8,14.9,17.3,17.6,17.3,20.6z"/>
	<path class="st0" d="M17.3,43.8c-0.1,2.9-2.8,5.6-5.6,5.5c-2.8-0.1-5.5-2.8-5.4-5.7c0.1-2.9,2.8-5.6,5.6-5.5
		C14.7,38.2,17.3,41,17.3,43.8z"/>
</g>
</svg>
