<?xml version="1.0" encoding="utf-8"?>
<!-- Generator: Adobe Illustrator 19.0.0, SVG Export Plug-In . SVG Version: 6.00 Build 0)  -->
<svg version="1.1" id="Layer_1" xmlns="http://www.w3.org/2000/svg" xmlns:xlink="http://www.w3.org/1999/xlink" x="0px" y="0px"
	 viewBox="0 0 70 70" style="enable-background:new 0 0 70 70;" xml:space="preserve">
<style type="text/css">
	.st0{fill:#292929;}
</style>
<g>
	<path class="st0" d="M35.3,14.2c6.4,0,12.7,0,19.1,0c5,0,7.2,2.1,7.3,6.9c0.1,9.2,0.1,18.5,0,27.7c0,4.9-2.3,7-7.2,7
		c-13,0-26,0-39,0c-5.1,0-7.2-2.1-7.3-7.3c0-9,0-18,0-27c0-5.3,2.2-7.3,7.6-7.4C22.4,14.2,28.9,14.2,35.3,14.2z M34.9,38.2
		c6.1,0,12.2-0.1,18.4,0c2.2,0,3.1-0.6,3-3c-0.2-4.2-0.1-8.5,0-12.7c0.1-2.2-0.9-2.7-2.9-2.7c-12.4,0.1-24.7,0.1-37.1,0
		c-1.9,0-2.7,0.6-2.6,2.6c0.1,4.4,0.1,8.7,0,13.1c-0.1,2.2,0.8,2.8,2.9,2.7C22.7,38.1,28.8,38.2,34.9,38.2z M23.3,43.8c-2,0-4,0-6,0
		c-2,0-3.4,0.9-3.5,3c-0.1,2.1,1.2,3.2,3.3,3.3c4,0.1,8,0.1,12,0c1.9,0,3.1-1.2,3.1-3c0-2.1-1.2-3.2-3.3-3.3
		C27,43.8,25.1,43.8,23.3,43.8z M56.2,46.8c-0.3-2-1.4-3.1-3.5-3c-1.9,0.1-3,1.4-2.9,3.3c0.1,2.1,1.4,3.2,3.5,3
		C55.3,50,56.2,48.8,56.2,46.8z"/>
</g>
</svg>
