<svg width="48" height="48" viewBox="0 0 48 48" fill="none" xmlns="http://www.w3.org/2000/svg">
<circle cx="24" cy="24" r="24" fill="#EDDBF4"/>
<path opacity="0.01" fill-rule="evenodd" clip-rule="evenodd" d="M34.9998 32.317C34.9998 33.7964 33.8006 34.9956 32.3212 34.9956L14.6873 34.9956C13.208 34.9956 12.0087 33.7963 12.0087 32.317L12.0087 14.6831C12.0087 13.2038 13.208 12.0045 14.6873 12.0045L32.3212 12.0045C33.8006 12.0045 34.9998 13.2038 34.9998 14.6831L34.9998 32.317Z" fill="#A86CC1"/>
<path fill-rule="evenodd" clip-rule="evenodd" d="M27.4105 16.9152C27.4105 17.6549 26.8108 18.2545 26.0712 18.2545L17.2542 18.2545C16.5145 18.2545 15.9149 17.6549 15.9149 16.9152L15.9149 13.3438C15.9149 12.6041 16.5145 12.0045 17.2542 12.0045L26.0712 12.0045C26.8108 12.0045 27.4105 12.6041 27.4105 13.3438L27.4105 16.9152Z" fill="#A86CC1"/>
<path fill-rule="evenodd" clip-rule="evenodd" d="M29.6425 25.2857C29.6425 26.0253 29.0429 26.625 28.3032 26.625L17.2541 26.625C16.5145 26.625 15.9148 26.0253 15.9148 25.2857L15.9148 21.7142C15.9148 20.9746 16.5145 20.375 17.2541 20.375L28.3032 20.375C29.0429 20.375 29.6425 20.9746 29.6425 21.7142L29.6425 25.2857Z" fill="#A86CC1"/>
<path opacity="0.5" fill-rule="evenodd" clip-rule="evenodd" d="M34.9998 33.6561C34.9998 34.3958 34.4002 34.9954 33.6605 34.9954L17.2543 34.9954C16.5146 34.9954 15.915 34.3958 15.915 33.6561L15.915 30.0847C15.915 29.345 16.5146 28.7454 17.2543 28.7454L33.6605 28.7454C34.4002 28.7454 34.9998 29.345 34.9998 30.0847L34.9998 33.6561Z" fill="#A86CC1"/>
<path opacity="0.5" d="M13.9062 34.9955C13.9062 35.5503 13.4565 36 12.9017 36C12.3628 36 11.923 35.5756 11.8984 35.0428L11.8973 34.9955L11.8973 12.0045C11.8973 11.4497 12.347 11 12.9017 11C13.4406 11 13.8804 11.4244 13.9051 11.9572L13.9062 12.0045L13.9062 34.9955Z" fill="#A86CC1"/>
</svg>
